<svg width="167" height="37" viewBox="0 0 167 37" fill="none" xmlns="http://www.w3.org/2000/svg">
<path d="M50.36 16V3.76H52.4085V16H50.36ZM54.9546 16V3.76H57.0286L62.7066 12.3875V3.76H64.7806V16H62.7066L57.0286 7.3725V16H54.9546ZM70.0978 16V5.681H66.1368V3.76H76.1073V5.681H72.1463V16H70.0978ZM77.4664 16V3.76H85.3714V5.681H79.5149V8.6985H84.3514V10.6195H79.5149V14.079H85.3714V16H77.4664ZM87.5807 16V3.76H89.6292V14.079H95.0352V16H87.5807ZM96.6452 16V3.76H98.6937V14.079H104.1V16H96.6452ZM105.71 16V3.76H107.758V16H105.71ZM114.835 16.255C113.939 16.255 113.132 16.0992 112.412 15.7875C111.698 15.4758 111.109 15.031 110.644 14.453C110.185 13.8693 109.893 13.178 109.769 12.379L111.894 12.056C112.075 12.7813 112.446 13.3423 113.007 13.739C113.574 14.1357 114.226 14.334 114.962 14.334C115.399 14.334 115.809 14.266 116.195 14.13C116.58 13.994 116.892 13.7957 117.13 13.535C117.373 13.2743 117.495 12.9542 117.495 12.5745C117.495 12.4045 117.467 12.2487 117.41 12.107C117.354 11.9597 117.269 11.8293 117.155 11.716C117.048 11.6027 116.906 11.5007 116.73 11.41C116.56 11.3137 116.362 11.2315 116.135 11.1635L112.973 10.2285C112.701 10.1492 112.407 10.0443 112.089 9.914C111.778 9.778 111.48 9.59383 111.197 9.3615C110.919 9.1235 110.69 8.82317 110.508 8.4605C110.333 8.09217 110.245 7.63883 110.245 7.1005C110.245 6.31283 110.443 5.65267 110.84 5.12C111.242 4.58167 111.78 4.17933 112.455 3.913C113.135 3.64667 113.888 3.51633 114.716 3.522C115.554 3.52767 116.302 3.67217 116.96 3.9555C117.617 4.23317 118.167 4.63833 118.609 5.171C119.051 5.70367 119.362 6.34683 119.544 7.1005L117.342 7.483C117.252 7.05233 117.076 6.68683 116.815 6.3865C116.56 6.0805 116.246 5.84817 115.872 5.6895C115.503 5.53083 115.11 5.44583 114.69 5.4345C114.282 5.42883 113.903 5.49117 113.551 5.6215C113.206 5.74617 112.925 5.9275 112.71 6.1655C112.5 6.4035 112.395 6.68117 112.395 6.9985C112.395 7.29883 112.486 7.54533 112.667 7.738C112.849 7.925 113.072 8.07517 113.339 8.1885C113.611 8.29617 113.886 8.38683 114.163 8.4605L116.356 9.0725C116.657 9.15183 116.994 9.2595 117.368 9.3955C117.742 9.5315 118.102 9.72133 118.447 9.965C118.793 10.2087 119.076 10.5288 119.297 10.9255C119.524 11.3222 119.637 11.8265 119.637 12.4385C119.637 13.0732 119.504 13.6313 119.238 14.113C118.977 14.589 118.623 14.9857 118.175 15.303C117.728 15.6203 117.215 15.8583 116.637 16.017C116.064 16.1757 115.464 16.255 114.835 16.255ZM126.407 16.255C125.432 16.255 124.574 16.0567 123.832 15.66C123.095 15.2633 122.517 14.7052 122.098 13.9855C121.684 13.2658 121.477 12.4215 121.477 11.4525V3.777L123.551 3.76V11.4015C123.551 11.8605 123.628 12.2713 123.781 12.634C123.939 12.9967 124.152 13.3055 124.418 13.5605C124.684 13.8098 124.99 13.9997 125.336 14.13C125.682 14.2603 126.039 14.3255 126.407 14.3255C126.787 14.3255 127.147 14.2603 127.487 14.13C127.832 13.994 128.138 13.8013 128.405 13.552C128.671 13.297 128.881 12.9882 129.034 12.6255C129.187 12.2628 129.263 11.8548 129.263 11.4015V3.76H131.337V11.4525C131.337 12.4215 131.127 13.2658 130.708 13.9855C130.294 14.7052 129.716 15.2633 128.974 15.66C128.237 16.0567 127.382 16.255 126.407 16.255ZM133.712 16V3.76H138.77C138.889 3.76 139.042 3.76567 139.229 3.777C139.416 3.78267 139.589 3.79967 139.747 3.828C140.456 3.93567 141.039 4.17083 141.498 4.5335C141.963 4.89617 142.306 5.35517 142.527 5.9105C142.754 6.46017 142.867 7.07217 142.867 7.7465C142.867 8.74383 142.615 9.60233 142.11 10.322C141.606 11.036 140.833 11.478 139.79 11.648L138.914 11.7245H135.761V16H133.712ZM140.742 16L138.328 11.019L140.41 10.56L143.062 16H140.742ZM135.761 9.812H138.685C138.798 9.812 138.926 9.80633 139.067 9.795C139.209 9.78367 139.339 9.761 139.458 9.727C139.798 9.642 140.065 9.49183 140.257 9.2765C140.456 9.06117 140.595 8.8175 140.674 8.5455C140.759 8.2735 140.801 8.00717 140.801 7.7465C140.801 7.48583 140.759 7.2195 140.674 6.9475C140.595 6.66983 140.456 6.42333 140.257 6.208C140.065 5.99267 139.798 5.8425 139.458 5.7575C139.339 5.7235 139.209 5.70367 139.067 5.698C138.926 5.68667 138.798 5.681 138.685 5.681H135.761V9.812ZM149.984 16.255C149.191 16.255 148.446 16.1162 147.749 15.8385C147.057 15.5552 146.448 15.1415 145.921 14.5975C145.4 14.0535 144.992 13.3877 144.697 12.6C144.402 11.8067 144.255 10.9 144.255 9.88C144.255 8.54267 144.504 7.40083 145.003 6.4545C145.502 5.5025 146.185 4.77433 147.052 4.27C147.919 3.76 148.896 3.505 149.984 3.505C151.491 3.505 152.684 3.85633 153.563 4.559C154.447 5.256 155.044 6.23633 155.356 7.5L153.265 7.8315C153.033 7.10617 152.653 6.52817 152.126 6.0975C151.599 5.66117 150.928 5.443 150.112 5.443C149.29 5.43167 148.607 5.61017 148.063 5.9785C147.519 6.34683 147.108 6.86533 146.831 7.534C146.559 8.20267 146.423 8.98467 146.423 9.88C146.423 10.7753 146.559 11.5545 146.831 12.2175C147.103 12.8748 147.511 13.3877 148.055 13.756C148.604 14.1243 149.29 14.3142 150.112 14.3255C150.729 14.3312 151.27 14.2207 151.735 13.994C152.2 13.7617 152.579 13.4132 152.874 12.9485C153.169 12.4782 153.367 11.8917 153.469 11.189H151.31V9.5825H155.645C155.656 9.67317 155.665 9.80633 155.671 9.982C155.676 10.1577 155.679 10.2625 155.679 10.2965C155.679 11.4525 155.45 12.481 154.991 13.382C154.537 14.2773 153.886 14.98 153.036 15.49C152.186 16 151.168 16.255 149.984 16.255ZM157.386 16V3.76H165.291V5.681H159.435V8.6985H164.271V10.6195H159.435V14.079H165.291V16H157.386ZM53.02 33V23.04H49.15V22.2H57.7525V23.04H53.8825V33H53.02ZM59.8562 33V22.2H66.5313V23.04H60.7187V27.1425H65.6312V27.9825H60.7187V32.16H66.5313V33H59.8562ZM73.1693 33.225C72.0943 33.225 71.1918 32.9875 70.4618 32.5125C69.7318 32.0325 69.1818 31.37 68.8118 30.525C68.4418 29.68 68.2568 28.705 68.2568 27.6C68.2568 26.495 68.4418 25.52 68.8118 24.675C69.1818 23.83 69.7318 23.17 70.4618 22.695C71.1918 22.215 72.0943 21.975 73.1693 21.975C74.4243 21.975 75.4418 22.3 76.2218 22.95C77.0068 23.6 77.5393 24.47 77.8193 25.56L76.9268 25.7775C76.6968 24.8725 76.2668 24.155 75.6368 23.625C75.0118 23.09 74.1893 22.8225 73.1693 22.8225C72.2843 22.8225 71.5468 23.025 70.9568 23.43C70.3718 23.835 69.9293 24.3975 69.6293 25.1175C69.3343 25.8375 69.1843 26.665 69.1793 27.6C69.1693 28.535 69.3118 29.3625 69.6068 30.0825C69.9068 30.7975 70.3543 31.36 70.9493 31.77C71.5443 32.175 72.2843 32.3775 73.1693 32.3775C74.1893 32.3775 75.0118 32.11 75.6368 31.575C76.2668 31.04 76.6968 30.3225 76.9268 29.4225L77.8193 29.64C77.5393 30.73 77.0068 31.6 76.2218 32.25C75.4418 32.9 74.4243 33.225 73.1693 33.225ZM80.3623 33V22.2H81.2248V27.18H87.4798V22.2H88.3498V33H87.4798V28.02H81.2248V33H80.3623ZM91.3551 33V22.2H92.2251L98.4801 31.4625V22.2H99.3501V33H98.4801L92.2251 23.7225V33H91.3551ZM106.66 33.225C105.585 33.225 104.683 32.9875 103.953 32.5125C103.223 32.0325 102.673 31.37 102.303 30.525C101.933 29.68 101.748 28.705 101.748 27.6C101.748 26.495 101.933 25.52 102.303 24.675C102.673 23.83 103.223 23.17 103.953 22.695C104.683 22.215 105.585 21.975 106.66 21.975C107.735 21.975 108.635 22.215 109.36 22.695C110.09 23.17 110.64 23.83 111.01 24.675C111.38 25.52 111.565 26.495 111.565 27.6C111.565 28.705 111.38 29.68 111.01 30.525C110.64 31.37 110.09 32.0325 109.36 32.5125C108.635 32.9875 107.735 33.225 106.66 33.225ZM106.66 32.3775C107.545 32.3825 108.283 32.1825 108.873 31.7775C109.463 31.3675 109.905 30.8025 110.2 30.0825C110.495 29.3625 110.643 28.535 110.643 27.6C110.643 26.665 110.495 25.8375 110.2 25.1175C109.905 24.3975 109.463 23.835 108.873 23.43C108.283 23.025 107.545 22.8225 106.66 22.8225C105.775 22.8175 105.038 23.0175 104.448 23.4225C103.863 23.8275 103.423 24.3925 103.128 25.1175C102.833 25.8375 102.68 26.665 102.67 27.6C102.66 28.535 102.803 29.3625 103.098 30.0825C103.398 30.7975 103.845 31.36 104.44 31.77C105.035 32.175 105.775 32.3775 106.66 32.3775ZM114.121 33V22.2H114.983V32.16H120.233V33H114.121ZM126.434 33.225C125.359 33.225 124.456 32.9875 123.726 32.5125C122.996 32.0325 122.446 31.37 122.076 30.525C121.706 29.68 121.521 28.705 121.521 27.6C121.521 26.495 121.706 25.52 122.076 24.675C122.446 23.83 122.996 23.17 123.726 22.695C124.456 22.215 125.359 21.975 126.434 21.975C127.509 21.975 128.409 22.215 129.134 22.695C129.864 23.17 130.414 23.83 130.784 24.675C131.154 25.52 131.339 26.495 131.339 27.6C131.339 28.705 131.154 29.68 130.784 30.525C130.414 31.37 129.864 32.0325 129.134 32.5125C128.409 32.9875 127.509 33.225 126.434 33.225ZM126.434 32.3775C127.319 32.3825 128.056 32.1825 128.646 31.7775C129.236 31.3675 129.679 30.8025 129.974 30.0825C130.269 29.3625 130.416 28.535 130.416 27.6C130.416 26.665 130.269 25.8375 129.974 25.1175C129.679 24.3975 129.236 23.835 128.646 23.43C128.056 23.025 127.319 22.8225 126.434 22.8225C125.549 22.8175 124.811 23.0175 124.221 23.4225C123.636 23.8275 123.196 24.3925 122.901 25.1175C122.606 25.8375 122.454 26.665 122.444 27.6C122.434 28.535 122.576 29.3625 122.871 30.0825C123.171 30.7975 123.619 31.36 124.214 31.77C124.809 32.175 125.549 32.3775 126.434 32.3775ZM138.034 33.225C137.249 33.225 136.552 33.09 135.942 32.82C135.337 32.55 134.827 32.1675 134.412 31.6725C133.997 31.1775 133.682 30.585 133.467 29.895C133.252 29.205 133.144 28.44 133.144 27.6C133.144 26.485 133.332 25.5075 133.707 24.6675C134.087 23.8225 134.639 23.165 135.364 22.695C136.089 22.225 136.979 21.99 138.034 21.99C139.124 21.99 140.019 22.245 140.719 22.755C141.424 23.265 141.919 23.935 142.204 24.765L141.349 25.0275C141.099 24.3625 140.692 23.8325 140.127 23.4375C139.567 23.0375 138.877 22.835 138.057 22.83C137.172 22.83 136.434 23.0325 135.844 23.4375C135.259 23.8375 134.819 24.3975 134.524 25.1175C134.229 25.8375 134.077 26.665 134.067 27.6C134.057 28.535 134.199 29.3625 134.494 30.0825C134.794 30.7975 135.242 31.36 135.837 31.77C136.432 32.175 137.172 32.3775 138.057 32.3775C138.902 32.3825 139.592 32.2175 140.127 31.8825C140.667 31.5475 141.067 31.0775 141.327 30.4725C141.592 29.8625 141.734 29.15 141.754 28.335H139.069V27.5475H142.654C142.669 27.6725 142.677 27.795 142.677 27.915C142.682 28.035 142.684 28.1275 142.684 28.1925C142.684 29.1475 142.517 30.005 142.182 30.765C141.852 31.525 141.342 32.125 140.652 32.565C139.967 33.005 139.094 33.225 138.034 33.225ZM145.238 33V22.2H146.101V33H145.238ZM149.255 33V22.2H155.93V23.04H150.118V27.1425H155.03V27.9825H150.118V32.16H155.93V33H149.255ZM161.806 33.225C161.066 33.225 160.398 33.1025 159.803 32.8575C159.213 32.6125 158.723 32.265 158.333 31.815C157.948 31.365 157.691 30.83 157.561 30.21L158.446 30.06C158.631 30.78 159.026 31.3475 159.631 31.7625C160.241 32.1775 160.973 32.385 161.828 32.385C162.408 32.385 162.921 32.2925 163.366 32.1075C163.811 31.9225 164.158 31.6625 164.408 31.3275C164.658 30.9875 164.783 30.5925 164.783 30.1425C164.783 29.8175 164.723 29.545 164.603 29.325C164.488 29.105 164.338 28.925 164.153 28.785C163.968 28.64 163.771 28.525 163.561 28.44C163.351 28.35 163.153 28.2775 162.968 28.2225L160.253 27.4125C159.893 27.3075 159.571 27.1775 159.286 27.0225C159.006 26.8625 158.768 26.68 158.573 26.475C158.383 26.265 158.236 26.0275 158.131 25.7625C158.031 25.4975 157.981 25.2025 157.981 24.8775C157.981 24.2975 158.136 23.79 158.446 23.355C158.756 22.92 159.181 22.5825 159.721 22.3425C160.266 22.0975 160.891 21.975 161.596 21.975C162.306 21.98 162.943 22.1125 163.508 22.3725C164.073 22.6275 164.536 22.99 164.896 23.46C165.261 23.93 165.496 24.4875 165.601 25.1325L164.708 25.29C164.638 24.795 164.458 24.3625 164.168 23.9925C163.883 23.6225 163.518 23.335 163.073 23.13C162.628 22.925 162.133 22.8225 161.588 22.8225C161.063 22.8175 160.598 22.905 160.193 23.085C159.793 23.265 159.478 23.5075 159.248 23.8125C159.018 24.1175 158.903 24.4625 158.903 24.8475C158.903 25.2475 159.011 25.5675 159.226 25.8075C159.446 26.0425 159.713 26.2275 160.028 26.3625C160.348 26.4975 160.653 26.6075 160.943 26.6925L163.118 27.3375C163.323 27.3975 163.568 27.4825 163.853 27.5925C164.138 27.7025 164.418 27.86 164.693 28.065C164.968 28.265 165.196 28.5325 165.376 28.8675C165.561 29.1975 165.653 29.6125 165.653 30.1125C165.653 30.5975 165.561 31.0325 165.376 31.4175C165.191 31.8025 164.926 32.13 164.581 32.4C164.236 32.665 163.828 32.8675 163.358 33.0075C162.888 33.1525 162.371 33.225 161.806 33.225Z" fill="#0072A9"/>
<path fill-rule="evenodd" clip-rule="evenodd" d="M30.292 2.80733C32.4313 5.14177 33.5047 6.30523 33.5047 6.30523C26.2987 13.6088 17.3888 22.5562 6.75999 33.1475C4.55315 30.8431 3.44974 29.6947 3.44974 29.6947C21.3446 11.7698 30.292 2.80733 30.292 2.80733Z" fill="#0072A9"/>
<mask id="mask0_206_39" style="mask-type:luminance" maskUnits="userSpaceOnUse" x="30" y="6" width="7" height="21">
<path d="M30.8625 8.75977C32.6115 6.9883 33.3921 6.17763 33.3921 6.17763C33.3996 6.24518 33.4972 6.23017 33.5047 6.30523C35.5914 19.839 36.6648 26.8198 36.6648 26.8198C36.6423 26.7973 36.4472 26.8648 36.4246 26.8498C33.6248 24.1551 32.4613 23.2618 32.4613 23.2618C31.448 14.1042 30.8625 8.75977 30.8625 8.75977Z" fill="white"/>
</mask>
<g mask="url(#mask0_206_39)">
<path d="M36.5559 5.39443L28.085 6.55179L30.9657 27.6361L39.4366 26.4787L36.5559 5.39443Z" fill="url(#paint0_linear_206_39)"/>
</g>
<mask id="mask1_206_39" style="mask-type:luminance" maskUnits="userSpaceOnUse" x="6" y="0" width="25" height="37">
<path d="M9.85256 0C7.71328 2.13928 6.63989 3.21267 6.63989 3.21267C20.6015 25.1459 27.5823 36.12 27.5823 36.12C29.8191 33.7255 30.9376 32.5245 30.9376 32.5245C16.8784 10.839 9.85256 0 9.85256 0Z" fill="white"/>
</mask>
<g mask="url(#mask1_206_39)">
<path d="M25.0694 -10.4066L-8.82141 8.72888L12.5136 46.5153L46.4044 27.3799L25.0694 -10.4066Z" fill="url(#paint1_linear_206_39)"/>
</g>
<path fill-rule="evenodd" clip-rule="evenodd" d="M9.85256 0C7.71328 2.13928 6.63989 3.21267 6.63989 3.21267C6.63989 3.21267 11.6015 8.27187 21.5248 18.3828C24.0844 21.0925 28.0176 25.0108 33.3321 30.1525C33.2195 30.4603 34.3304 29.3494 36.6648 26.8198C28.5056 18.9908 24.5573 15.065 24.835 15.0575C14.8442 5.02167 9.85256 0 9.85256 0Z" fill="#002645"/>
<path fill-rule="evenodd" clip-rule="evenodd" d="M27.5823 36.1125C9.81503 18.2401 0.93515 9.30022 0.93515 9.30022C0.93515 9.30022 1.98602 8.18179 4.09527 5.94493C4.09527 5.94493 13.0427 14.8023 30.9376 32.5245C28.7007 34.919 27.5823 36.12 27.5823 36.12" fill="#0072A9"/>
<path fill-rule="evenodd" clip-rule="evenodd" d="M4.65824 10.4862C2.17368 9.69806 0.93515 9.30023 0.93515 9.30023C2.61655 22.894 3.44974 29.6947 3.44974 29.6947C5.24373 30.5654 6.14448 31.0008 6.14448 31.0008C5.15365 17.3244 4.65824 10.4862 4.65824 10.4862Z" fill="#0072A9"/>
<defs>
<linearGradient id="paint0_linear_206_39" x1="35.0933" y1="26.6858" x2="32.7099" y2="9.24121" gradientUnits="userSpaceOnUse">
<stop stop-color="#00172E"/>
<stop offset="1" stop-color="#0072A9"/>
</linearGradient>
<linearGradient id="paint1_linear_206_39" x1="11.2383" y1="4.18522" x2="27.2173" y2="32.4858" gradientUnits="userSpaceOnUse">
<stop stop-color="#002443"/>
<stop offset="1" stop-color="#0073AC"/>
</linearGradient>
</defs>
</svg>
